# xmcd CD database file
#
# Track frame offsets:
#	150
#	22393
#	45385
#	68929
#	93207
#	119939
#	142985
#	166833
#	190145
#	212325
#	236322
#	255830
#	280091
#	305748
#
# Disc length: 4413 seconds
#
# Revision: 1
# Processed by: cddbd v1.5.2PL0 Copyright (c) Steve Scherf et al.
# Submitted via: CDex 1.51
#
DISCID=bf113b0e
DTITLE=William Golding - Herr der Fliegen CD1
DYEAR=2009
DGENRE=Hoerbuch
TTITLE0=01
TTITLE1=02
TTITLE2=03
TTITLE3=04
TTITLE4=05
TTITLE5=06
TTITLE6=07
TTITLE7=08
TTITLE8=09
TTITLE9=10
TTITLE10=11
TTITLE11=12
TTITLE12=13
TTITLE13=14
EXTD=YEAR: 2009
EXTT0=
EXTT1=
EXTT2=
EXTT3=
EXTT4=
EXTT5=
EXTT6=
EXTT7=
EXTT8=
EXTT9=
EXTT10=
EXTT11=
EXTT12=
EXTT13=
PLAYORDER=
